<?xml version="1.0" encoding="utf-8"?>
<!-- Generator: Adobe Illustrator 22.0.0, SVG Export Plug-In . SVG Version: 6.00 Build 0)  -->
<svg version="1.1" id="Layer_1" xmlns="http://www.w3.org/2000/svg" xmlns:xlink="http://www.w3.org/1999/xlink" x="0px" y="0px"
	 viewBox="0 55 248.4 140" style="enable-background:new 0 55 248.4 140;" xml:space="preserve">
<style type="text/css">
	.st0{display:none;}
	.st1{display:inline;fill:none;stroke:#000000;stroke-width:9;stroke-linecap:round;stroke-linejoin:round;stroke-miterlimit:10;}
	.st2{display:inline;fill:none;stroke:#000000;stroke-width:12;stroke-linecap:round;stroke-linejoin:round;stroke-miterlimit:10;}
</style>
<g id="Layer_2_1_" class="st0">
	<path class="st1" d="M-1.4,101c-0.5,48-0.9,95.9-1.4,143.9"/>
	<path class="st2" d="M-66.6,95.4c-5.2,1.5-10.6,3.1-16,2.4s-10.9-4.1-12.1-9.4c-2.1-8.6,7-15.5,14.9-19.3
		c45.1-21.5,95.6-28.2,145.1-34.6c82-10.6,164.4-21.3,247.1-19.3c7.1,0.2,14.5,0.5,20.8,3.8s11.2,10.4,9.7,17.3
		c-1.3,5.7-6.3,9.7-11.1,12.9C298.6,71.4,259,81.7,220.2,90.9c-100.7,24-202.5,43.6-304.9,58.7"/>
	<path class="st2" d="M69.6,218.7c-1.9-7.6-11.2-12.3-18.4-9.3s-10.5,12.9-6.5,19.6c2.6,4.4,7.8,7.1,13,7.2
		c6.1,0.1,12.1-3.2,15.2-8.5c3.1-5.2,3.2-12.1,0.2-17.4c1.3,11.1,4.7,21.9,9.9,31.8c14.3-7.2,25.9-19.5,32.3-34.2
		c0.6,25.4,1.2,50.9,1.8,76.3c-2-15.2-2.3-30.6-0.8-45.9c0.8-8.4,2.1-16.9,6.1-24.4s11-13.7,19.4-14.7c8.4-1.1,17.6,4.2,19.3,12.5
		c1.2,6-2,12.6-7.5,15.4s-12.7,1.5-16.9-2.9"/>
	<path class="st2" d="M182.7,215.9c0,8.2,0,16.3,0,24.5"/>
	<path class="st2" d="M204.2,219.8c1.4,5.2,2.8,10.3,4.2,15.5c9.1-16.7,26.2-28.7,44.9-31.6"/>
	<path class="st2" d="M181.4,189.1c-1.1,1.1-2.3,2.1-3.4,3.2c1,1.1,3.1,0.7,3.7-0.6c0.6-1.3-0.5-3.1-2-3.1"/>
</g>
<g id="Primary">
	<g>
		<g>
			<path d="M57.3,188.4C57.2,188.4,57.2,188.4,57.3,188.4c-1.8,0-3.2-1.4-3.2-3.2l0.5-76.2c0-1.8,1.4-3.2,3.2-3.2l0,0
				c1.8,0,3.2,1.4,3.2,3.2l-0.5,76.2C60.4,187,59,188.4,57.3,188.4z"/>
		</g>
		<g>
			<path d="M10.6,140.8c-1.6,0-2.9-1.2-3.2-2.8c-0.3-1.8,1-3.4,2.7-3.6c73.4-10.1,146.4-26.6,217-49.1c3.3-1.1,7-2.2,9.8-4.4
				c2.6-2,4-4.9,3.5-7.3c-0.9-5.2-9.1-7-13.8-7.7c-35.4-4.6-71.5-4.6-107.3-0.1c-18.2,2.3-36.3,5.9-53.9,10.5
				c-11.9,3.2-24.6,7.3-36.6,11.9c-0.4,0.2-1.1,0.4-1.9,0.7c-2.7,0.9-7.8,2.6-12.1,4.8c-6.6,3.3-6.9,5.1-6.9,5.1
				c0,0.1,0.4,1,2.4,2.1c2.9,1.7,7,2.7,11.2,2.7l0,0c1.8,0,3.2,1.4,3.2,3.2s-1.4,3.2-3.2,3.2c0,0,0,0-0.1,0
				c-5.3,0-10.4-1.2-14.3-3.5c-4.1-2.3-5.9-5.1-5.6-8.3c0.7-6.8,11.6-11.4,23.3-15.3c0.7-0.3,1.4-0.5,1.7-0.6
				c12.2-4.7,25.1-8.9,37.3-12.1c17.9-4.8,36.3-8.3,54.8-10.7c36.3-4.6,72.9-4.6,108.9,0.1c14.5,1.9,18.5,8.1,19.3,13
				c0.8,4.8-1.4,9.9-5.9,13.4c-3.7,2.9-8.2,4.3-11.8,5.5c-71,22.5-144.3,39.1-218.1,49.3C10.9,140.8,10.8,140.8,10.6,140.8z"/>
		</g>
	</g>
</g>
</svg>
