<?xml version="1.0" encoding="utf-8"?>
<!-- Generator: Adobe Illustrator 22.0.0, SVG Export Plug-In . SVG Version: 6.00 Build 0)  -->
<svg version="1.1" xmlns="http://www.w3.org/2000/svg" xmlns:xlink="http://www.w3.org/1999/xlink" x="0px" y="0px"
	 viewBox="0 0 792 612" style="enable-background:new 0 0 792 612;" xml:space="preserve">
<style type="text/css">
	.st0{display:none;}
	.st1{display:inline;fill:none;stroke:#000000;stroke-width:9;stroke-linecap:round;stroke-linejoin:round;stroke-miterlimit:10;}
	.st2{display:inline;fill:none;stroke:#000000;stroke-width:12;stroke-linecap:round;stroke-linejoin:round;stroke-miterlimit:10;}
</style>
<g id="Layer_2" class="st0">
	<path class="st1" d="M264.5,251.7c-0.5,48-0.9,95.9-1.4,143.9"/>
	<path class="st2" d="M199.3,246.1c-5.2,1.5-10.6,3.1-16,2.4s-10.9-4.1-12.1-9.4c-2.1-8.6,7-15.5,14.9-19.3
		c45.1-21.5,95.6-28.2,145.1-34.6c82-10.6,164.4-21.3,247.1-19.3c7.1,0.2,14.5,0.5,20.8,3.8c6.3,3.3,11.2,10.4,9.7,17.3
		c-1.3,5.7-6.3,9.7-11.1,12.9c-33.2,22.2-72.8,32.5-111.6,41.7c-100.7,24-202.5,43.6-304.9,58.7"/>
	<path class="st2" d="M335.5,369.4c-1.9-7.6-11.2-12.3-18.4-9.3s-10.5,12.9-6.5,19.6c2.6,4.4,7.8,7.1,13,7.2
		c6.1,0.1,12.1-3.2,15.2-8.5c3.1-5.2,3.2-12.1,0.2-17.4c1.3,11.1,4.7,21.9,9.9,31.8c14.3-7.2,25.9-19.5,32.3-34.2
		c0.6,25.4,1.2,50.9,1.8,76.3c-2-15.2-2.3-30.6-0.8-45.9c0.8-8.4,2.1-16.9,6.1-24.4s11-13.7,19.4-14.7c8.4-1.1,17.6,4.2,19.3,12.5
		c1.2,6-2,12.6-7.5,15.4c-5.5,2.8-12.7,1.5-16.9-2.9"/>
	<path class="st2" d="M448.6,366.6c0,8.2,0,16.3,0,24.5"/>
	<path class="st2" d="M470.1,370.5c1.4,5.2,2.8,10.3,4.2,15.5c9.1-16.7,26.2-28.7,44.9-31.6"/>
	<path class="st2" d="M447.3,339.8c-1.1,1.1-2.3,2.1-3.4,3.2c1,1.1,3.1,0.7,3.7-0.6c0.6-1.3-0.5-3.1-2-3.1"/>
</g>
<g id="Primary">
	<g>
		<g>
			<path d="M264.8,398.7C264.7,398.7,264.7,398.7,264.8,398.7c-3.4,0-6-2.7-6-6l1-142.7c0-3.3,2.7-6,6-6c0,0,0,0,0,0
				c3.3,0,6,2.7,6,6l-1,142.7C270.7,396.1,268,398.7,264.8,398.7z"/>
		</g>
		<g>
			<path d="M177.5,309.6c-3,0-5.5-2.2-5.9-5.2c-0.5-3.3,1.8-6.3,5.1-6.8c137.4-18.9,274.2-49.8,406.4-91.9c6.2-2,13.2-4.2,18.3-8.3
				c4.8-3.8,7.4-9.2,6.6-13.7c-1.6-9.8-17-13.2-25.9-14.4c-66.3-8.7-133.9-8.7-200.9-0.1c-34,4.4-68,11-101,19.7
				c-22.3,5.9-46,13.6-68.6,22.2c-0.8,0.3-2,0.7-3.6,1.3c-5.1,1.7-14.6,4.9-22.7,8.9c-12.4,6.1-12.9,9.6-12.9,9.6
				c0,0.2,0.7,1.8,4.5,4c5.5,3.2,13.1,5,20.9,5c0,0,0,0,0,0c3.3,0,6,2.7,6,6c0,3.3-2.7,6-6,6c0,0,0,0-0.1,0
				c-9.9,0-19.5-2.3-26.8-6.6c-7.6-4.3-11.1-9.6-10.5-15.6c1.3-12.7,21.7-21.3,43.6-28.7c1.4-0.5,2.6-0.9,3.1-1.1
				c22.9-8.8,47.1-16.6,69.8-22.6c33.5-8.9,68-15.6,102.6-20.1c68-8.7,136.6-8.7,203.9,0.1c27.2,3.6,34.7,15.2,36.2,24.3
				c1.5,8.9-2.7,18.5-11,25.1c-6.9,5.4-15.3,8.1-22.1,10.3c-132.9,42.2-270.3,73.3-408.4,92.3C178,309.6,177.8,309.6,177.5,309.6z"
				/>
		</g>
	</g>
</g>
</svg>
