<?xml version="1.0" encoding="utf-8"?>
<!-- Generator: Adobe Illustrator 22.0.0, SVG Export Plug-In . SVG Version: 6.00 Build 0)  -->
<svg version="1.1" xmlns="http://www.w3.org/2000/svg" xmlns:xlink="http://www.w3.org/1999/xlink" x="0px" y="0px"
	 viewBox="0 0 469.4 314.8" style="enable-background:new 0 0 469.4 314.8;" xml:space="preserve">
<style type="text/css">
	.st0{display:none;}
	.st1{display:inline;fill:none;stroke:#000000;stroke-width:9;stroke-linecap:round;stroke-linejoin:round;stroke-miterlimit:10;}
	.st2{display:inline;fill:none;stroke:#000000;stroke-width:12;stroke-linecap:round;stroke-linejoin:round;stroke-miterlimit:10;}
</style>
<g id="Layer_2" class="st0">
	<path class="st1" d="M109.1,106.9c-0.5,48-0.9,95.9-1.4,143.9"/>
	<path class="st2" d="M43.8,101.2c-5.2,1.5-10.6,3.1-16,2.4S17,99.5,15.7,94.3c-2.1-8.6,7-15.5,14.9-19.3
		c45.1-21.5,95.6-28.2,145.1-34.6c82-10.6,164.4-21.3,247.1-19.3c7.1,0.2,14.5,0.5,20.8,3.8s11.2,10.4,9.7,17.3
		c-1.3,5.7-6.3,9.7-11.1,12.9C409,77.2,369.4,87.5,330.6,96.7c-100.7,24-202.5,43.6-304.9,58.7"/>
	<path class="st2" d="M180.1,224.5c-1.9-7.6-11.2-12.3-18.4-9.3c-7.2,3-10.5,12.9-6.5,19.6c2.6,4.4,7.8,7.1,13,7.2
		c6.1,0.1,12.1-3.2,15.2-8.5s3.2-12.1,0.2-17.4c1.3,11.1,4.7,21.9,9.9,31.8c14.3-7.2,25.9-19.5,32.3-34.2
		c0.6,25.4,1.2,50.9,1.8,76.3c-2-15.2-2.3-30.6-0.8-45.9c0.8-8.4,2.1-16.9,6.1-24.4s11-13.7,19.4-14.7c8.4-1.1,17.6,4.2,19.3,12.5
		c1.2,6-2,12.6-7.5,15.4c-5.5,2.8-12.7,1.5-16.9-2.9"/>
	<path class="st2" d="M293.1,221.7c0,8.2,0,16.3,0,24.5"/>
	<path class="st2" d="M314.7,225.6c1.4,5.2,2.8,10.3,4.2,15.5c9.1-16.7,26.2-28.7,44.9-31.6"/>
	<path class="st2" d="M291.8,194.9c-1.1,1.1-2.3,2.1-3.4,3.2c1,1.1,3.1,0.7,3.7-0.6c0.6-1.3-0.5-3.1-2-3.1"/>
</g>
<g id="Primary">
	<g>
		<g>
			<g>
				<path d="M109.3,253.8C109.3,253.8,109.3,253.8,109.3,253.8c-3.4,0-6-2.7-6-6l1-142.7c0-3.3,2.7-6,6-6c0,0,0,0,0,0
					c3.3,0,6,2.7,6,6l-1,142.7C115.3,251.2,112.6,253.8,109.3,253.8z"/>
			</g>
			<g>
				<path d="M22,164.7c-3,0-5.5-2.2-5.9-5.2c-0.5-3.3,1.8-6.3,5.1-6.8c137.4-18.9,274.2-49.8,406.4-91.9c6.2-2,13.2-4.2,18.3-8.3
					c4.8-3.8,7.4-9.2,6.6-13.7c-1.6-9.8-17-13.2-25.9-14.4c-66.3-8.7-133.9-8.7-200.9-0.1c-34,4.4-68,11-101,19.7
					c-22.3,5.9-46,13.6-68.6,22.2c-0.8,0.3-2,0.7-3.6,1.3c-5.1,1.7-14.6,4.9-22.7,8.9c-12.4,6.1-12.9,9.6-12.9,9.6
					c0,0.2,0.7,1.8,4.5,4c5.5,3.2,13.1,5,20.9,5c0,0,0,0,0,0c3.3,0,6,2.7,6,6c0,3.3-2.7,6-6,6c0,0,0,0-0.1,0
					c-9.9,0-19.5-2.3-26.8-6.6C8.1,96.2,4.5,91,5.1,85c1.3-12.7,21.7-21.3,43.6-28.7c1.4-0.5,2.6-0.9,3.1-1.1
					c22.9-8.8,47.1-16.6,69.8-22.6c33.5-8.9,68-15.6,102.6-20.1c68-8.7,136.6-8.7,203.9,0.1c27.2,3.6,34.7,15.2,36.2,24.3
					c1.5,8.9-2.7,18.5-11,25.1c-6.9,5.4-15.3,8.1-22.1,10.3C298.4,114.6,161,145.6,22.9,164.7C22.6,164.7,22.3,164.7,22,164.7z"/>
			</g>
		</g>
		<g>
			<g>
				<path d="M217.2,308.9c-2.9,0-5.5-2.1-5.9-5.1c-2.7-17.3-3.1-35.2-1.1-52.7l-0.2-12.1l-0.2,0.3c-5.4,6.3-12.8,14.9-23.9,14.9
					c-2.8,0-6.8-1-10.3-5.6c-1.4-1.9-2.6-4.2-3.5-6.7c-1.3,1.9-2.7,3.6-4.3,5.1c-5.1,4.8-12.5,7.4-19.5,6.8
					c-5.7-0.5-10.5-3.2-13.6-7.4c-7.4-10.2-2-24.2,6.9-32.3c7.9-7.2,17.1-10.2,25.3-8.3c4,0.9,6.6,2.4,8.4,4.4
					c0.8-0.1,1.6-0.1,2.5,0.1c3.2,0.9,5.1,4.1,4.3,7.3c-0.1,0.4-0.2,0.8-0.3,1.1c-1.7,7.7,1.3,22.1,4.3,23.6
					c5.5-0.1,10.4-5.7,14.7-10.7l0.3-0.4c4.4-5.1,6.6-12.1,8.8-18.9c0.9-2.8,3.7-4.5,6.6-4.1c1.8,0.3,3.3,1.3,4.2,2.7
					c0.9-1.5,1.9-3,3.1-4.5c6.5-7.9,16.3-11.5,25-9.2c11,3,18,15.6,15.3,27.5c-2,8.8-10.6,28.4-23.5,29.2c-3.8,0.2-8.9,0.3-15.6-1.2
					c-0.9-0.2-1.8-0.5-2.6-0.9l1,51c0.1,3.2-2.3,5.8-5.5,6.1C217.6,308.9,217.4,308.9,217.2,308.9z M224.4,237.3
					c0,0.6,0.2,1.2,0.6,1.7c0.3,0.6,1.1,1.5,2.5,1.8c5.1,1.2,9,1.1,12.2,0.9c3.7-0.2,10.6-11.2,12.6-19.9c1.2-5.6-2-12-6.8-13.3
					c-4.6-1.3-9.8,1.8-12.6,5.3c-3.7,4.5-5.6,10.8-7,16.8c-0.2,0.8-0.4,1.7-0.6,2.7C224.9,234.8,224.7,236,224.4,237.3z
					 M161.9,217.1c-3.8,0-8.3,2-12.3,5.7c-5,4.5-8.4,12.1-5.2,16.4c1.3,1.8,3.4,2.4,5,2.5c3.5,0.3,7.6-1.1,10.1-3.5
					c3.6-3.4,6.2-9.1,8-14.2c-0.4-2.8-0.9-5.4-1.3-6c0,0,0,0,0,0c0,0-0.4-0.3-2.1-0.7C163.3,217.2,162.6,217.1,161.9,217.1z"/>
			</g>
			<g>
				<path d="M310.3,254c-0.7,0-1.4-0.1-2.1-0.4c-2.9-1.1-4.5-4.2-3.7-7.2c1.2-4.5-1.3-9.9-5.5-11.9c-3-1.4-4.3-5-2.9-8
					c1.4-3,5-4.3,8-2.9c3.9,1.8,7.1,4.8,9.3,8.4c10.9-13.4,25.9-20.5,44.9-21.1c3.3-0.1,6.1,2.5,6.2,5.8c0.1,3.3-2.5,6.1-5.8,6.2
					c-20,0.7-34.1,9.8-43,27.7C314.6,252.8,312.5,254,310.3,254z"/>
			</g>
			<g>
				<g>
					<path d="M280.3,254c-3.2,0-5.9-2.5-6-5.8c-0.2-4.4-0.1-8.7,0-12.8c0.1-4.2,0.2-8.1,0-12.1c-0.1-3.3,2.5-6.1,5.8-6.2
						c3.3-0.2,6.1,2.5,6.2,5.8c0.2,4.3,0.1,8.6,0,12.8c-0.1,4.2-0.2,8.1,0,12.1c0.1,3.3-2.4,6.1-5.8,6.2
						C280.4,254,280.3,254,280.3,254z"/>
				</g>
				<g>
					<path d="M280.8,210.1c-1.1,0-2.1-0.3-3.1-0.8c-3-1.8-4.9-5.2-4.9-8.9c0-3.7,1.9-7.1,4.9-8.9c2.9-1.7,6.5-0.7,8.2,2.2
						c0.3,0.6,0.6,1.2,0.7,1.8c0.9,1.4,1.4,2.9,1.6,4.6c0.3,3.6-1.2,7.1-4.1,9.1C283.2,209.7,282,210.1,280.8,210.1z"/>
				</g>
			</g>
		</g>
	</g>
</g>
</svg>
